{"title":"Species 3 (Unrated Edition) DVD RIP (2004)","uid":9801131,"size":1180943179,"categoryP":"video","categoryS":"movies","magnet":"?xt=urn:btih:31da37fd1f684748a313ded32779aead6b30236a&amp;dn=Species+3+%28Unrated+Edition%29+DVD+RIP+%282004%29&amp;tr=udp%3A%2F%2Ftracker.openbittorrent.com%3A80&amp;tr=udp%3A%2F%2Fopen.demonii.com%3A1337&amp;tr=udp%3A%2F%2Ftracker.coppersurfer.tk%3A6969&amp;tr=udp%3A%2F%2Fexodus.desync.com%3A6969","seeders":0,"leechers":2,"uploader":"jmanwf","files":4,"time":1395379300,"description":" &lt;a href=&quot;http://www.movie-censorship.com/report.php?ID=3640052&quot; rel=&quot;nofollow&quot; target=&quot;_NEW&quot;&gt;http://www.movie-censorship.com/report.php?ID=3640052&lt;/a&gt;\n\n\n\nRuntime: 1 Hour 51 Minutes\n\n\n\n\nStoryline\n\nWhile being transported in a military ambulance and supposed dead, Eve delivers an offspring and is killed by a half-breed. The baby girl is abducted by Dr. Abbot, and a couple of days later she grows up, reaching adulthood and becoming a gorgeous young woman called Sara. Dr. Abbot expects to develop a perfect DNA using Sara's eggs and win the Nobel Prize, and invites the student Dean to be his assistant and share his research and future awards. But while Sara unsuccessfully chases a perfect mate for her to generate a perfect being, the flawed half-breeds led by Amelia try to reproduce with her to survive their species. \n\n\nFormat                                   : MPEG-4\nFormat profile                           : Base Media\nCodec ID                                 : isom\nFile size                                : 1.06 GiB\nDuration                                 : 1h 51mn\nOverall bit rate mode                    : Variable\nOverall bit rate                         : 1 355 Kbps\nWriting application                      : HandBrake 6117svn 2014031701\n\nVideo\nID                                       : 1\nFormat                                   : AVC\nFormat/Info                              : Advanced Video Codec\nFormat profile                           : &lt;a class=&quot;__cf_email__&quot; href=&quot;/cdn-cgi/l/email-protection&quot; data-cfemail=&quot;f3bb9a949bb3bfc7ddc2&quot;&gt;[email&amp;#160;protected]&lt;/a&gt;&lt;script cf-hash='f9e31' type=&quot;text/javascript&quot;&gt;\n/* &lt;![CDATA[ */!function(){try{var t=&quot;currentScript&quot;in document?document.currentScript:function(){for(var t=document.getElementsByTagName(&quot;script&quot;),e=t.length;e--;)if(t[e].getAttribute(&quot;cf-hash&quot;))return t[e]}();if(t&amp;&amp;t.previousSibling){var e,r,n,i,c=t.previousSibling,a=c.getAttribute(&quot;data-cfemail&quot;);if(a){for(e=&quot;&quot;,r=parseInt(a.substr(0,2),16),n=2;a.length-n;n+=2)i=parseInt(a.substr(n,2),16)^r,e+=String.fromCharCode(i);e=document.createTextNode(e),c.parentNode.replaceChild(e,c)}}}catch(u){}}();/* ]]&gt; */&lt;/script&gt;\nFormat settings, CABAC                   : Yes\nFormat settings, ReFrames                : 4 frames\nCodec ID                                 : avc1\nCodec ID/Info                            : Advanced Video Coding\nDuration                                 : 1h 51mn\nBit rate                                 : 860 Kbps\nWidth                                    : 720 pixels\nHeight                                   : 482 pixels\nDisplay aspect ratio                     : 16:9\nOriginal display aspect ratio            : 16:9\nFrame rate mode                          : Variable\nFrame rate                               : 23.976 fps\nMinimum frame rate                       : 19.978 fps\nMaximum frame rate                       : 29.970 fps\nColor space                              : YUV\nChroma subsampling                       : 4:2:0\nBit depth                                : 8 bits\nScan type                                : Progressive\nBits/(Pixel*Frame)                       : 0.103\nStream size                              : 689 MiB (63%)\nWriting library                          : x264 core 142 r2389 956c8d8\nColor primaries                          : BT.601 NTSC\nTransfer characteristics                 : BT.709\nMatrix coefficients                      : BT.601\n\nAudio #1\nID                                       : 2\nFormat                                   : AAC\nFormat/Info                              : Advanced Audio Codec\nFormat profile                           : LC\nCodec ID                                 : 40\nDuration                                 : 1h 51mn\nBit rate mode                            : Variable\nBit rate                                 : 160 Kbps\nChannel(s)                               : 2 channels\nChannel positions                        : Front: L R\nSampling rate                            : 48.0 KHz\nCompression mode                         : Lossy\nStream size                              : 128 MiB (12%)\nLanguage                                 : English\n\n\n\n\nIncludes Directories Commentary\n\n\n\nPlease note this is the best quality i could do the original source disks weren't very god\n\n\n &lt;a href=&quot;\nhttp://www.imdb.com/title/tt0410650/&quot; rel=&quot;nofollow&quot; target=&quot;_NEW&quot;&gt;\nhttp://www.imdb.com/title/tt0410650/&lt;/a&gt;","torrent":{"xt":"urn:btih:31da37fd1f684748a313ded32779aead6b30236a","amp;dn":"Species+3+%28Unrated+Edition%29+DVD+RIP+%282004%29","amp;tr":["udp%3A%2F%2Ftracker.openbittorrent.com%3A80","udp%3A%2F%2Fopen.demonii.com%3A1337","udp%3A%2F%2Ftracker.coppersurfer.tk%3A6969","udp%3A%2F%2Fexodus.desync.com%3A6969"],"infoHash":"31da37fd1f684748a313ded32779aead6b30236a","infoHashBuffer":{"type":"Buffer","data":[49,218,55,253,31,104,71,72,163,19,222,211,39,121,174,173,107,48,35,106]},"announce":[],"urlList":[]}}